<svg width="30" height="23" viewBox="0 0 30 23" fill="none" xmlns="http://www.w3.org/2000/svg">
<path fill-rule="evenodd" clip-rule="evenodd" d="M3.53142 0H26.4686C28.4122 0 30 1.63088 30 3.6273V19.3727C30 21.3688 28.4122 23 26.4686 23H3.53142C1.58777 23 0 21.3695 0 19.3727V3.6273C0 1.63088 1.58777 0 3.53142 0ZM28.4672 2.63873L16.8426 11.4011C15.7391 12.2328 14.2609 12.2328 13.1574 11.4011L1.53279 2.63873C1.39105 2.93832 1.31148 3.27369 1.31148 3.6273V19.3727C1.31148 20.6254 2.31182 21.6529 3.53142 21.6529H26.4686C27.6878 21.6529 28.6885 20.6251 28.6885 19.3727V3.6273C28.6885 3.27369 28.6089 2.93832 28.4672 2.63873ZM2.43169 1.64912L13.931 10.3171C14.569 10.798 15.431 10.798 16.069 10.3171L27.5683 1.64912C27.2435 1.45688 26.8678 1.34708 26.4686 1.34708H3.53142C3.13217 1.34708 2.75649 1.45723 2.43169 1.64912Z" fill="white"/>
</svg>
