<svg width="38" height="38" viewBox="0 0 38 38" fill="none" xmlns="http://www.w3.org/2000/svg">
<path d="M36.7699 11.3811V32.9214C30.615 32.4614 24.4518 33.9525 19.235 37.1687L18.7723 37.4563L18.7171 37.4932L18.662 37.4563L18.1908 37.1687C12.9739 33.9525 6.80175 32.4614 0.647335 32.9214V11.3811C6.80229 10.921 12.974 12.4121 18.1908 15.6242L18.7129 15.9446L19.2308 15.6242C24.4519 12.412 30.6147 10.921 36.7699 11.3811Z" fill="#2C8000"/>
<path d="M36.3329 11.3808V13.5332V18.676V24.895V30.2719V32.0382C36.3329 32.3175 36.3117 32.6051 36.3329 32.8844V32.9214C36.473 32.7858 36.6173 32.6462 36.7574 32.5106C34.1214 32.3176 31.4599 32.4777 28.8666 32.9789C26.2774 33.48 23.7644 34.3303 21.4085 35.4886C20.4068 35.9816 19.4305 36.5279 18.5009 37.1317H18.9296C17.0067 35.9199 14.9734 34.9053 12.8214 34.1414C10.3424 33.2624 7.74033 32.716 5.10858 32.5148C3.62715 32.3998 2.14144 32.3998 0.660083 32.5107C0.800162 32.6462 0.944487 32.7859 1.08457 32.9214V30.769V25.6263V19.4073V14.0304V12.2641C1.08457 11.9847 1.10579 11.6972 1.08457 11.4179V11.3809C0.944487 11.5164 0.800162 11.6561 0.660083 11.7917C3.22392 11.6027 5.80902 11.7465 8.3262 12.2312C10.8434 12.72 13.2968 13.5333 15.5848 14.6588C16.5908 15.1517 17.5501 15.7185 18.501 16.3018C18.6241 16.3758 18.8066 16.3799 18.9297 16.3018C20.8059 15.1188 22.7882 14.1125 24.8936 13.369C27.3004 12.5187 29.8261 11.9806 32.3772 11.7916C33.8332 11.6848 35.2976 11.6848 36.7493 11.7916C36.9785 11.8081 37.1738 11.5904 37.1738 11.3809C37.1738 11.1426 36.9785 10.9865 36.7493 10.9701C34.126 10.777 31.4773 10.9372 28.8966 11.4343C26.32 11.9313 23.8156 12.7733 21.4682 13.9194C20.441 14.4205 19.4605 14.9874 18.4969 15.5953H18.9256C16.9772 14.3958 14.9524 13.3607 12.7791 12.5925C10.3129 11.7177 7.71929 11.1796 5.10026 10.9783C3.61883 10.8632 2.13312 10.8632 0.651762 10.9742C0.422546 10.9906 0.227279 11.1467 0.227279 11.3849V13.5373V18.6801V24.8991V30.276C0.227279 31.1468 0.197566 32.0217 0.227279 32.8884V32.9254C0.227279 33.1349 0.422538 33.3526 0.651762 33.3361C3.22833 33.1472 5.82189 33.291 8.35607 33.7839C10.886 34.2768 13.3479 35.0983 15.6443 36.2361C16.6249 36.7208 17.5715 37.2672 18.4926 37.8463C18.6114 37.9203 18.8024 37.9244 18.9213 37.8463C20.7635 36.6469 22.7714 35.6652 24.8555 34.9258C27.2708 34.0714 29.8091 33.5251 32.3731 33.3361C33.829 33.2293 35.2935 33.2293 36.7452 33.3361C36.9744 33.3526 37.1697 33.1349 37.1697 32.9254V30.773V25.6302V19.4112V14.0343C37.1697 13.1635 37.1994 12.2886 37.1697 11.4219V11.3849C37.1824 10.8509 36.3335 10.8509 36.3335 11.3808L36.3329 11.3808Z" fill="#2C8000"/>
<path d="M24.2779 5.79401C24.2779 8.77029 21.7844 11.1832 18.7087 11.1832C15.6331 11.1832 13.1396 8.77029 13.1396 5.79401C13.1396 2.81773 15.6331 0.404785 18.7087 0.404785C21.7844 0.404785 24.2779 2.81773 24.2779 5.79401Z" fill="#2C8000"/>
<path d="M23.8533 5.79424C23.8406 7.84395 22.5077 9.75808 20.5 10.4647C18.4455 11.1876 16.1321 10.5797 14.7355 8.95717C13.356 7.35933 13.1989 5.00565 14.3025 3.22702C15.4062 1.45665 17.605 0.499583 19.7061 0.906235C21.8116 1.317 23.45 2.97239 23.7981 5.0221C23.8363 5.27677 23.8491 5.53555 23.8533 5.79432C23.8576 6.3242 24.7065 6.3242 24.7023 5.79432C24.6896 3.36673 23.102 1.18557 20.7547 0.343502C18.4201 -0.490382 15.6737 0.232593 14.0989 2.09337C12.4986 3.98286 12.2651 6.70211 13.581 8.80117C14.8884 10.8796 17.4395 11.9476 19.9015 11.4793C22.2998 11.0193 24.2482 9.06811 24.6217 6.72682C24.6726 6.41875 24.6981 6.10657 24.7023 5.79439C24.7023 5.26451 23.8533 5.26451 23.8533 5.79439L23.8533 5.79424Z" fill="#2C8000"/>
</svg>
