<svg width="48" height="48" viewBox="0 0 48 48" fill="none" xmlns="http://www.w3.org/2000/svg">
<rect x="0.5" y="0.5" width="47" height="47" rx="5.5" stroke="#2C8000"/>
<path d="M11.2153 13.3659C11.0785 13.5816 11.0011 13.8749 11 14.1816C10.9982 14.4889 11.076 14.7843 11.2153 14.9974L23.3045 34.2337C23.4398 34.4519 23.6244 34.5748 23.8171 34.5748C24.0099 34.5748 24.1944 34.4519 24.3297 34.2337L36.4212 14.9974C36.5648 14.7837 36.6477 14.4863 36.651 14.1736C36.6542 13.8606 36.5777 13.5593 36.4385 13.3379C36.2996 13.1168 36.1101 12.9948 35.9135 13.0002C35.717 13.0053 35.5302 13.1373 35.3959 13.3658L23.8171 31.7863L12.2411 13.3658C12.1054 13.1484 11.9208 13.0263 11.7283 13.0263C11.5359 13.0263 11.3513 13.1484 11.2156 13.3658L11.2153 13.3659Z" fill="#2C8000"/>
</svg>
