<svg width="21" height="20" viewBox="0 0 21 20" fill="none" xmlns="http://www.w3.org/2000/svg">
<path fill-rule="evenodd" clip-rule="evenodd" d="M8.42588 1.96844C4.90103 1.96844 2.04997 4.70195 2.04997 8.06611C2.04997 11.4305 4.90096 14.164 8.42588 14.164C10.188 14.164 11.7813 13.4816 12.9359 12.3767C14.0903 11.2718 14.802 9.74936 14.802 8.06611C14.802 4.70195 11.9507 1.96844 8.42581 1.96844H8.42588ZM0 8.06611C0 3.608 3.7759 0 8.42588 0C13.0756 0 16.8518 3.60774 16.8518 8.06611C16.8518 9.93884 16.1842 11.6632 15.0669 13.0312L19.9659 17.7197C20.3669 18.1032 20.3682 18.7262 19.9686 19.1113C19.5692 19.4964 18.9205 19.4974 18.5195 19.1139L13.6154 14.4213C12.1851 15.4929 10.3828 16.1322 8.42616 16.1322C3.77645 16.1322 0.000274803 12.5244 0.000274803 8.06605L0 8.06611Z" fill="black"/>
</svg>
