<svg width="21" height="20" viewBox="0 0 21 20" fill="none" xmlns="http://www.w3.org/2000/svg">
<path fill-rule="evenodd" clip-rule="evenodd" d="M8.34204 1.96844C4.85226 1.96844 2.02957 4.70195 2.02957 8.06611C2.02957 11.4305 4.85219 14.164 8.34204 14.164C10.0867 14.164 11.664 13.4816 12.8072 12.3767C13.9501 11.2718 14.6547 9.74936 14.6547 8.06611C14.6547 4.70195 11.8318 1.96844 8.34197 1.96844H8.34204ZM0 8.06611C0 3.608 3.73833 0 8.34204 0C12.9455 0 16.6841 3.60774 16.6841 8.06611C16.6841 9.93884 16.0232 11.6632 14.9169 13.0312L19.7673 17.7197C20.1642 18.1032 20.1655 18.7262 19.7699 19.1113C19.3745 19.4964 18.7322 19.4974 18.3353 19.1139L13.4799 14.4213C12.0639 15.4929 10.2795 16.1322 8.34231 16.1322C3.73887 16.1322 0.000272069 12.5244 0.000272069 8.06605L0 8.06611Z" fill="white"/>
</svg>
